<svg width="18" height="17" viewBox="0 0 18 17" fill="none" xmlns="http://www.w3.org/2000/svg">
<path d="M8.88949 1.41675C7.48854 1.41675 6.11905 1.83218 4.9542 2.61051C3.78935 3.38883 2.88146 4.4951 2.34534 5.78941C1.80922 7.08372 1.66895 8.50794 1.94226 9.88197C2.21557 11.256 2.89019 12.5181 3.88082 13.5088C4.87144 14.4994 6.13357 15.174 7.5076 15.4473C8.88163 15.7206 10.3059 15.5804 11.6002 15.0442C12.8945 14.5081 14.0007 13.6002 14.7791 12.4354C15.5574 11.2705 15.9728 9.90103 15.9728 8.50008C15.9728 7.56989 15.7896 6.6488 15.4336 5.78941C15.0777 4.93002 14.5559 4.14916 13.8982 3.49141C13.2404 2.83366 12.4596 2.31191 11.6002 1.95593C10.7408 1.59996 9.81969 1.41675 8.88949 1.41675V1.41675ZM8.88949 14.1667C7.76873 14.1667 6.67314 13.8344 5.74126 13.2117C4.80938 12.5891 4.08307 11.7041 3.65417 10.6686C3.22528 9.63317 3.11306 8.4938 3.33171 7.39457C3.55036 6.29534 4.09005 5.28564 4.88255 4.49314C5.67505 3.70065 6.68475 3.16095 7.78398 2.9423C8.8832 2.72365 10.0226 2.83587 11.058 3.26476C12.0935 3.69366 12.9785 4.41997 13.6012 5.35185C14.2238 6.28373 14.5562 7.37932 14.5562 8.50008C14.5562 10.003 13.9591 11.4443 12.8964 12.507C11.8337 13.5697 10.3924 14.1667 8.88949 14.1667V14.1667Z" fill="#fff"/>
<path d="M11.7228 7.79159H9.59782V5.66659C9.59782 5.47872 9.52319 5.29856 9.39035 5.16572C9.25751 5.03288 9.07735 4.95825 8.88949 4.95825C8.70162 4.95825 8.52146 5.03288 8.38862 5.16572C8.25578 5.29856 8.18115 5.47872 8.18115 5.66659V8.49992C8.18115 8.68778 8.25578 8.86795 8.38862 9.00079C8.52146 9.13362 8.70162 9.20825 8.88949 9.20825H11.7228C11.9107 9.20825 12.0908 9.13362 12.2237 9.00079C12.3565 8.86795 12.4312 8.68778 12.4312 8.49992C12.4312 8.31206 12.3565 8.13189 12.2237 7.99905C12.0908 7.86621 11.9107 7.79159 11.7228 7.79159Z" fill="#fff"/>
</svg>
