<svg width="31" height="30" viewBox="0 0 31 30" fill="none" xmlns="http://www.w3.org/2000/svg">
<g clip-path="url(#clip0_2_3526)">
<path d="M30.4551 15C30.4551 6.97266 23.9512 0.46875 15.9238 0.46875C7.89648 0.46875 1.39258 6.97266 1.39258 15C1.39258 22.2527 6.70645 28.2645 13.6533 29.3555V19.2006H9.96191V15H13.6533V11.7984C13.6533 8.15684 15.8213 6.14531 19.1418 6.14531C20.732 6.14531 22.3949 6.42891 22.3949 6.42891V10.0031H20.5621C18.7574 10.0031 18.1943 11.1234 18.1943 12.2725V15H22.2244L21.5799 19.2006H18.1943V29.3555C25.1412 28.2645 30.4551 22.2527 30.4551 15Z" fill="white"/>
</g>
<defs>
<clipPath id="clip0_2_3526">
<rect width="30" height="30" fill="white" transform="translate(0.923828)"/>
</clipPath>
</defs>
</svg>
