<svg width="19" height="20" viewBox="0 0 19 20" fill="none" xmlns="http://www.w3.org/2000/svg">
<rect x="0.798828" y="1.5625" width="16.875" height="16.875" rx="3.5" stroke="#FFB100" stroke-width="1.5"/>
<path d="M12.9843 9.87601C13.0006 10.3682 12.9197 10.8588 12.7464 11.3197C12.5731 11.7807 12.3107 12.203 11.9742 12.5625C11.6377 12.9221 11.2337 13.2118 10.7852 13.4152C10.3367 13.6186 9.85251 13.7317 9.36032 13.7479C8.86813 13.7642 8.37756 13.6834 7.9166 13.5101C7.45565 13.3368 7.03335 13.0744 6.6738 12.7379C6.31426 12.4014 6.02452 11.9973 5.82112 11.5488C5.61773 11.1003 5.50466 10.6162 5.48838 10.124C5.4721 9.6318 5.55292 9.14123 5.72622 8.68027C5.89953 8.21932 6.16194 7.79702 6.49845 7.43747C6.83497 7.07793 7.23901 6.78819 7.6875 6.5848C8.13599 6.3814 8.62015 6.26833 9.11234 6.25205C9.60452 6.23577 10.0951 6.31659 10.5561 6.4899C11.017 6.66321 11.4393 6.92561 11.7989 7.26212C12.1584 7.59864 12.4481 8.00268 12.6515 8.45117C12.8549 8.89966 12.968 9.38382 12.9843 9.87601Z" stroke="#FFB100" stroke-width="1.5" stroke-linecap="round" stroke-linejoin="round"/>
<path d="M13.9113 6.0625C13.4971 6.0625 13.1613 5.72671 13.1613 5.3125C13.1613 4.89829 13.4971 4.5625 13.9113 4.5625V6.0625ZM13.9238 4.5625C14.338 4.5625 14.6738 4.89829 14.6738 5.3125C14.6738 5.72671 14.338 6.0625 13.9238 6.0625V4.5625ZM13.9113 4.5625H13.9238V6.0625H13.9113V4.5625Z" fill="#FFB100"/>
</svg>
