<svg width="20" height="20" viewBox="0 0 20 20" fill="none" xmlns="http://www.w3.org/2000/svg">
<path d="M17.0082 4.90825L13.6749 3.40825H12.9915L9.99988 4.74992L7.00821 3.40825H6.96654L6.86654 3.33325H6.36654L3.03321 4.83325C2.86695 4.89696 2.72546 5.01224 2.62949 5.1622C2.53351 5.31217 2.48809 5.48893 2.49988 5.66659V15.8333C2.50011 15.9727 2.53532 16.1098 2.60229 16.2321C2.66927 16.3544 2.76585 16.458 2.88321 16.5333C3.01734 16.6199 3.17353 16.6662 3.33321 16.6666C3.45112 16.666 3.56758 16.6405 3.67488 16.5916L6.66654 15.2499L9.65821 16.5916H9.69988C9.79379 16.6355 9.8962 16.6583 9.99988 16.6583C10.1035 16.6583 10.206 16.6355 10.2999 16.5916H10.3415L13.3332 15.2499L16.3249 16.5916C16.4322 16.6405 16.5486 16.666 16.6665 16.6666C16.8262 16.6662 16.9824 16.6199 17.1165 16.5333C17.2339 16.458 17.3305 16.3544 17.3975 16.2321C17.4644 16.1098 17.4996 15.9727 17.4999 15.8333V5.66659C17.4995 5.50628 17.453 5.34948 17.3658 5.21498C17.2786 5.08047 17.1544 4.97397 17.0082 4.90825ZM4.16654 6.19992L5.83321 5.45825V13.7916L4.16654 14.5333V6.19992ZM7.49988 5.45825L9.16654 6.19992V14.5333L7.49988 13.7916V5.45825ZM10.8332 6.19992L12.4999 5.45825V13.7916L10.8332 14.5333V6.19992ZM15.8332 14.5333L14.1665 13.7916V5.45825L15.8332 6.19992V14.5333Z" fill="white"/>
</svg>
