<svg width="15" height="9" viewBox="0 0 15 9" fill="none" xmlns="http://www.w3.org/2000/svg">
<path d="M7.48824 8.15498C7.23833 8.15547 6.99614 8.06844 6.80372 7.90899L0.38638 2.5612C0.167959 2.37966 0.0306013 2.11878 0.00452583 1.83596C-0.0215497 1.55314 0.0657924 1.27155 0.247337 1.05313C0.428882 0.834706 0.689759 0.697349 0.972578 0.671274C1.2554 0.645198 1.53699 0.73254 1.75541 0.914085L7.48824 5.7057L13.2211 1.08521C13.3305 0.996371 13.4563 0.930025 13.5915 0.889989C13.7266 0.849954 13.8683 0.837019 14.0084 0.851928C14.1486 0.866836 14.2844 0.909294 14.4081 0.976862C14.5318 1.04443 14.6409 1.13578 14.7291 1.24565C14.8271 1.35562 14.9013 1.48464 14.947 1.62461C14.9928 1.76459 15.0092 1.91251 14.9951 2.05911C14.9811 2.20571 14.9369 2.34782 14.8653 2.47655C14.7938 2.60528 14.6965 2.71784 14.5794 2.8072L8.16206 7.97316C7.9641 8.10741 7.72685 8.17142 7.48824 8.15498Z" fill="white" fill-opacity="0.4"/>
</svg>
