<svg width="74" height="100" viewBox="0 0 74 100" fill="none" xmlns="http://www.w3.org/2000/svg">
<path d="M1.28016 99.7279C1.62331 99.9052 2.00392 99.9978 2.39016 99.9979C2.87222 99.9973 3.34282 99.8508 3.74016 99.5779L72.7902 51.9979C73.1078 51.7791 73.3675 51.4864 73.5469 51.145C73.7263 50.8035 73.8201 50.4236 73.8201 50.0379C73.8201 49.6522 73.7263 49.2723 73.5469 48.9309C73.3675 48.5894 73.1078 48.2967 72.7902 48.0779L3.74016 0.417905C3.37919 0.170774 2.95732 0.027456 2.52051 0.0035669C2.08371 -0.0203222 1.64872 0.0761344 1.26295 0.282426C0.877189 0.488718 0.555442 0.796932 0.332773 1.17348C0.110104 1.55003 -0.00494465 1.98047 0.000162956 2.41791V97.6179C0.000262589 98.053 0.119637 98.4798 0.34531 98.8518C0.570983 99.2238 0.894317 99.5268 1.28016 99.7279Z" fill="white"/>
</svg>
