<svg width="14" height="12" viewBox="0 0 14 12" fill="none" xmlns="http://www.w3.org/2000/svg">
<path d="M1.16634 6.83336H11.0497L8.02467 10.4667C7.95464 10.551 7.90188 10.6482 7.86942 10.7528C7.83696 10.8575 7.82543 10.9675 7.83549 11.0766C7.85581 11.297 7.96283 11.5002 8.13301 11.6417C8.30319 11.7831 8.52259 11.8512 8.74294 11.8309C8.9633 11.8106 9.16656 11.7035 9.30801 11.5334L13.4747 6.53336C13.5027 6.49359 13.5278 6.45181 13.5497 6.40836C13.5497 6.36669 13.5913 6.34169 13.608 6.30002C13.6458 6.20447 13.6656 6.10276 13.6663 6.00002C13.6656 5.89728 13.6458 5.79557 13.608 5.70002C13.608 5.65836 13.5663 5.63336 13.5497 5.59169C13.5278 5.54824 13.5027 5.50646 13.4747 5.46669L9.30801 0.466689C9.22966 0.37262 9.13154 0.29697 9.02064 0.245119C8.90973 0.193268 8.78877 0.16649 8.66634 0.166689C8.47163 0.166308 8.28293 0.234121 8.13301 0.358355C8.04862 0.428313 7.97887 0.51423 7.92775 0.611186C7.87662 0.708142 7.84512 0.814232 7.83506 0.923379C7.825 1.03253 7.83657 1.14259 7.8691 1.24726C7.90164 1.35193 7.95451 1.44915 8.02467 1.53336L11.0497 5.16669H1.16634C0.945327 5.16669 0.733366 5.25449 0.577086 5.41077C0.420805 5.56705 0.333008 5.77901 0.333008 6.00002C0.333008 6.22104 0.420805 6.433 0.577086 6.58928C0.733366 6.74556 0.945327 6.83336 1.16634 6.83336Z" fill="#292929"/>
</svg>
