<svg width="31" height="30" viewBox="0 0 31 30" fill="none" xmlns="http://www.w3.org/2000/svg">
<g clip-path="url(#clip0_2_3524)">
<path d="M27.84 8.88957C27.8591 9.15605 27.8591 9.42259 27.8591 9.68908C27.8591 17.8172 21.6726 27.1827 10.3654 27.1827C6.88193 27.1827 3.64592 26.1738 0.923828 24.4226C1.41877 24.4797 1.89461 24.4987 2.40859 24.4987C5.28291 24.4987 7.92889 23.5279 10.0418 21.8718C7.33879 21.8147 5.07355 20.0444 4.29309 17.6078C4.67383 17.6649 5.05451 17.703 5.4543 17.703C6.00631 17.703 6.55838 17.6268 7.0723 17.4936C4.25506 16.9225 2.14205 14.4479 2.14205 11.4594V11.3833C2.96055 11.8401 3.9124 12.1256 4.92121 12.1637C3.26512 11.0596 2.18014 9.17509 2.18014 7.0431C2.18014 5.90099 2.48465 4.85404 3.01768 3.94033C6.04434 7.67128 10.5938 10.1078 15.6953 10.3743C15.6002 9.91748 15.543 9.44164 15.543 8.96574C15.543 5.57738 18.2842 2.81726 21.6915 2.81726C23.4618 2.81726 25.0608 3.55964 26.1839 4.75888C27.5734 4.4924 28.9059 3.97841 30.0862 3.27412C29.6293 4.70181 28.6585 5.90105 27.3831 6.66242C28.6204 6.52923 29.8197 6.18652 30.9237 5.71068C30.0863 6.9289 29.0393 8.01388 27.84 8.88957V8.88957Z" fill="white"/>
</g>
<defs>
<clipPath id="clip0_2_3524">
<rect width="30" height="30" fill="white" transform="translate(0.923828)"/>
</clipPath>
</defs>
</svg>
