<svg width="31" height="30" viewBox="0 0 31 30" fill="none" xmlns="http://www.w3.org/2000/svg">
<g clip-path="url(#clip0_2_3530)">
<path d="M29.5513 8.12932C29.2241 6.89755 28.2603 5.92745 27.0365 5.59823C24.8183 5 15.9234 5 15.9234 5C15.9234 5 7.02862 5 4.81034 5.59823C3.58654 5.9275 2.62268 6.89755 2.29555 8.12932C1.70117 10.362 1.70117 15.0202 1.70117 15.0202C1.70117 15.0202 1.70117 19.6784 2.29555 21.9111C2.62268 23.1429 3.58654 24.0726 4.81034 24.4018C7.02862 25 15.9234 25 15.9234 25C15.9234 25 24.8182 25 27.0365 24.4018C28.2603 24.0726 29.2241 23.1429 29.5513 21.9111C30.1457 19.6784 30.1457 15.0202 30.1457 15.0202C30.1457 15.0202 30.1457 10.362 29.5513 8.12932V8.12932ZM13.0143 19.2495V10.7909L20.4486 15.0203L13.0143 19.2495V19.2495Z" fill="white"/>
</g>
<defs>
<clipPath id="clip0_2_3530">
<rect width="30" height="30" fill="white" transform="translate(0.923828)"/>
</clipPath>
</defs>
</svg>
